<svg id="Ebene_1" data-name="Ebene 1" xmlns="http://www.w3.org/2000/svg" viewBox="0 0 800 800"><defs><style>.cls-1{fill:#b3b3b3;}</style></defs><title>checkmate_b3b3b3-transparent</title><path class="cls-1" d="M370,0H30A30,30,0,0,0,0,30V370a30,30,0,0,0,30,30H400V30A30,30,0,0,0,370,0Zm-7.74,89.46L142.59,333a17.51,17.51,0,0,1-24.72,1.27L38.78,263a17.5,17.5,0,0,1-1.27-24.71h0A17.51,17.51,0,0,1,62.23,237l66.09,59.61L336.27,66a17.5,17.5,0,1,1,26,23.44Z"/><path class="cls-1" d="M517.87,334.3,438.78,263a17.5,17.5,0,0,1-1.27-24.71h0A17.51,17.51,0,0,1,462.23,237l66.09,59.61L736.27,66A17.51,17.51,0,0,1,761,64.74h0a17.5,17.5,0,0,1,1.27,24.72L542.59,333A17.51,17.51,0,0,1,517.87,334.3Z"/><path class="cls-1" d="M117.87,734.3,38.78,663a17.5,17.5,0,0,1-1.27-24.71h0A17.51,17.51,0,0,1,62.23,637l66.09,59.61L336.27,466A17.51,17.51,0,0,1,361,464.74h0a17.5,17.5,0,0,1,1.27,24.72L142.59,733A17.51,17.51,0,0,1,117.87,734.3Z"/><path class="cls-1" d="M770,400H400V770a30,30,0,0,0,30,30H770a30,30,0,0,0,30-30V430A30,30,0,0,0,770,400Zm-7.74,89.46L542.59,733a17.51,17.51,0,0,1-24.72,1.27L438.78,663a17.5,17.5,0,0,1-1.27-24.71h0A17.51,17.51,0,0,1,462.23,637l66.09,59.61L736.27,466a17.5,17.5,0,1,1,26,23.44Z"/></svg>
